<mxfile host="Electron" agent="Mozilla/5.0 (Windows NT 10.0; Win64; x64) AppleWebKit/537.36 (KHTML, like Gecko) draw.io/26.1.1 Chrome/132.0.6834.210 Electron/34.3.3 Safari/537.36" version="26.1.1">
  <diagram name="Página-1" id="G7QGw9k0fvsXSEzc00dY">
    <mxGraphModel dx="1295" dy="758" grid="1" gridSize="10" guides="1" tooltips="1" connect="1" arrows="1" fold="1" page="1" pageScale="1" pageWidth="2336" pageHeight="1654" math="0" shadow="0">
      <root>
        <mxCell id="0" />
        <mxCell id="1" parent="0" />
        <mxCell id="eBYukhTFhuYysdgNIi8--53" style="edgeStyle=orthogonalEdgeStyle;rounded=0;orthogonalLoop=1;jettySize=auto;html=1;exitX=0.5;exitY=0;exitDx=0;exitDy=0;entryX=0;entryY=0.5;entryDx=0;entryDy=0;fontFamily=Helvetica;fontSize=12;fontColor=default;" edge="1" parent="1" source="eBYukhTFhuYysdgNIi8--1" target="eBYukhTFhuYysdgNIi8--7">
          <mxGeometry relative="1" as="geometry" />
        </mxCell>
        <mxCell id="eBYukhTFhuYysdgNIi8--54" style="edgeStyle=orthogonalEdgeStyle;rounded=0;orthogonalLoop=1;jettySize=auto;html=1;exitX=1;exitY=0.25;exitDx=0;exitDy=0;entryX=0;entryY=0.5;entryDx=0;entryDy=0;fontFamily=Helvetica;fontSize=12;fontColor=default;" edge="1" parent="1" source="eBYukhTFhuYysdgNIi8--1" target="eBYukhTFhuYysdgNIi8--6">
          <mxGeometry relative="1" as="geometry" />
        </mxCell>
        <mxCell id="eBYukhTFhuYysdgNIi8--55" style="edgeStyle=orthogonalEdgeStyle;rounded=0;orthogonalLoop=1;jettySize=auto;html=1;exitX=1;exitY=0.75;exitDx=0;exitDy=0;entryX=0;entryY=0.5;entryDx=0;entryDy=0;fontFamily=Helvetica;fontSize=12;fontColor=default;" edge="1" parent="1" source="eBYukhTFhuYysdgNIi8--1" target="eBYukhTFhuYysdgNIi8--3">
          <mxGeometry relative="1" as="geometry" />
        </mxCell>
        <mxCell id="eBYukhTFhuYysdgNIi8--56" style="edgeStyle=orthogonalEdgeStyle;rounded=0;orthogonalLoop=1;jettySize=auto;html=1;exitX=0.5;exitY=1;exitDx=0;exitDy=0;entryX=0;entryY=0.5;entryDx=0;entryDy=0;fontFamily=Helvetica;fontSize=12;fontColor=default;" edge="1" parent="1" source="eBYukhTFhuYysdgNIi8--1" target="eBYukhTFhuYysdgNIi8--4">
          <mxGeometry relative="1" as="geometry" />
        </mxCell>
        <mxCell id="eBYukhTFhuYysdgNIi8--1" value="ADMINISTRADOR" style="rounded=0;whiteSpace=wrap;html=1;gradientColor=#808080;" vertex="1" parent="1">
          <mxGeometry x="390" y="290" width="120" height="60" as="geometry" />
        </mxCell>
        <mxCell id="eBYukhTFhuYysdgNIi8--2" value="Visualizar Alertas&amp;nbsp;&lt;div&gt;Dinámicas&lt;/div&gt;" style="ellipse;whiteSpace=wrap;html=1;rounded=0;strokeColor=default;align=center;verticalAlign=middle;fontFamily=Helvetica;fontSize=12;fontColor=default;fillColor=default;gradientColor=#808080;" vertex="1" parent="1">
          <mxGeometry x="940" y="430" width="120" height="80" as="geometry" />
        </mxCell>
        <mxCell id="eBYukhTFhuYysdgNIi8--3" value="Agregar Autos" style="ellipse;whiteSpace=wrap;html=1;rounded=0;strokeColor=default;align=center;verticalAlign=middle;fontFamily=Helvetica;fontSize=12;fontColor=default;fillColor=default;gradientColor=#808080;" vertex="1" parent="1">
          <mxGeometry x="610" y="350" width="120" height="80" as="geometry" />
        </mxCell>
        <mxCell id="eBYukhTFhuYysdgNIi8--4" value="Editar Autos" style="ellipse;whiteSpace=wrap;html=1;rounded=0;strokeColor=default;align=center;verticalAlign=middle;fontFamily=Helvetica;fontSize=12;fontColor=default;fillColor=default;gradientColor=#808080;" vertex="1" parent="1">
          <mxGeometry x="740" y="430" width="120" height="80" as="geometry" />
        </mxCell>
        <mxCell id="eBYukhTFhuYysdgNIi8--5" value="Buscar autos" style="ellipse;whiteSpace=wrap;html=1;rounded=0;strokeColor=default;align=center;verticalAlign=middle;fontFamily=Helvetica;fontSize=12;fontColor=default;fillColor=default;gradientColor=#808080;" vertex="1" parent="1">
          <mxGeometry x="940" y="130" width="120" height="80" as="geometry" />
        </mxCell>
        <mxCell id="eBYukhTFhuYysdgNIi8--6" value="Eliminar Autos" style="ellipse;whiteSpace=wrap;html=1;rounded=0;strokeColor=default;align=center;verticalAlign=middle;fontFamily=Helvetica;fontSize=12;fontColor=default;fillColor=default;gradientColor=#808080;" vertex="1" parent="1">
          <mxGeometry x="610" y="210" width="120" height="80" as="geometry" />
        </mxCell>
        <mxCell id="eBYukhTFhuYysdgNIi8--7" value="Ordenar Autos" style="ellipse;whiteSpace=wrap;html=1;rounded=0;strokeColor=default;align=center;verticalAlign=middle;fontFamily=Helvetica;fontSize=12;fontColor=default;fillColor=default;gradientColor=#808080;" vertex="1" parent="1">
          <mxGeometry x="740" y="130" width="120" height="80" as="geometry" />
        </mxCell>
        <mxCell id="eBYukhTFhuYysdgNIi8--8" value="Filtrar Autos&lt;div&gt;Por Precio&lt;/div&gt;" style="ellipse;whiteSpace=wrap;html=1;rounded=0;strokeColor=default;align=center;verticalAlign=middle;fontFamily=Helvetica;fontSize=12;fontColor=default;fillColor=default;gradientColor=#808080;" vertex="1" parent="1">
          <mxGeometry x="1060" y="350" width="120" height="80" as="geometry" />
        </mxCell>
        <mxCell id="eBYukhTFhuYysdgNIi8--50" style="edgeStyle=orthogonalEdgeStyle;rounded=0;orthogonalLoop=1;jettySize=auto;html=1;exitX=0.5;exitY=0;exitDx=0;exitDy=0;entryX=1;entryY=0.5;entryDx=0;entryDy=0;fontFamily=Helvetica;fontSize=12;fontColor=default;" edge="1" parent="1" source="eBYukhTFhuYysdgNIi8--26" target="eBYukhTFhuYysdgNIi8--5">
          <mxGeometry relative="1" as="geometry" />
        </mxCell>
        <mxCell id="eBYukhTFhuYysdgNIi8--51" style="edgeStyle=orthogonalEdgeStyle;rounded=0;orthogonalLoop=1;jettySize=auto;html=1;exitX=0;exitY=0.5;exitDx=0;exitDy=0;entryX=1;entryY=0.5;entryDx=0;entryDy=0;fontFamily=Helvetica;fontSize=12;fontColor=default;" edge="1" parent="1" source="eBYukhTFhuYysdgNIi8--26" target="eBYukhTFhuYysdgNIi8--27">
          <mxGeometry relative="1" as="geometry" />
        </mxCell>
        <mxCell id="eBYukhTFhuYysdgNIi8--52" style="edgeStyle=orthogonalEdgeStyle;rounded=0;orthogonalLoop=1;jettySize=auto;html=1;exitX=0.5;exitY=1;exitDx=0;exitDy=0;entryX=1;entryY=0.5;entryDx=0;entryDy=0;fontFamily=Helvetica;fontSize=12;fontColor=default;" edge="1" parent="1" source="eBYukhTFhuYysdgNIi8--26" target="eBYukhTFhuYysdgNIi8--8">
          <mxGeometry relative="1" as="geometry" />
        </mxCell>
        <mxCell id="eBYukhTFhuYysdgNIi8--26" value="CLIENTES" style="rounded=0;whiteSpace=wrap;html=1;strokeColor=default;align=center;verticalAlign=middle;fontFamily=Helvetica;fontSize=12;fontColor=default;fillColor=default;gradientColor=#808080;" vertex="1" parent="1">
          <mxGeometry x="1290" y="290" width="120" height="60" as="geometry" />
        </mxCell>
        <mxCell id="eBYukhTFhuYysdgNIi8--27" value="Consultar Autos&amp;nbsp;" style="ellipse;whiteSpace=wrap;html=1;rounded=0;strokeColor=default;align=center;verticalAlign=middle;fontFamily=Helvetica;fontSize=12;fontColor=default;fillColor=default;gradientColor=#808080;" vertex="1" parent="1">
          <mxGeometry x="1060" y="210" width="120" height="80" as="geometry" />
        </mxCell>
        <mxCell id="eBYukhTFhuYysdgNIi8--39" style="edgeStyle=orthogonalEdgeStyle;rounded=0;orthogonalLoop=1;jettySize=auto;html=1;exitX=0.25;exitY=0;exitDx=0;exitDy=0;entryX=0.5;entryY=1;entryDx=0;entryDy=0;fontFamily=Helvetica;fontSize=12;fontColor=default;" edge="1" parent="1" source="eBYukhTFhuYysdgNIi8--38" target="eBYukhTFhuYysdgNIi8--7">
          <mxGeometry relative="1" as="geometry" />
        </mxCell>
        <mxCell id="eBYukhTFhuYysdgNIi8--40" style="edgeStyle=orthogonalEdgeStyle;rounded=0;orthogonalLoop=1;jettySize=auto;html=1;exitX=0;exitY=0.25;exitDx=0;exitDy=0;entryX=1;entryY=0.5;entryDx=0;entryDy=0;fontFamily=Helvetica;fontSize=12;fontColor=default;" edge="1" parent="1" source="eBYukhTFhuYysdgNIi8--38" target="eBYukhTFhuYysdgNIi8--6">
          <mxGeometry relative="1" as="geometry" />
        </mxCell>
        <mxCell id="eBYukhTFhuYysdgNIi8--41" style="edgeStyle=orthogonalEdgeStyle;rounded=0;orthogonalLoop=1;jettySize=auto;html=1;exitX=0;exitY=0.75;exitDx=0;exitDy=0;entryX=1;entryY=0.5;entryDx=0;entryDy=0;fontFamily=Helvetica;fontSize=12;fontColor=default;" edge="1" parent="1" source="eBYukhTFhuYysdgNIi8--38" target="eBYukhTFhuYysdgNIi8--3">
          <mxGeometry relative="1" as="geometry" />
        </mxCell>
        <mxCell id="eBYukhTFhuYysdgNIi8--42" style="edgeStyle=orthogonalEdgeStyle;rounded=0;orthogonalLoop=1;jettySize=auto;html=1;exitX=0.25;exitY=1;exitDx=0;exitDy=0;entryX=0.5;entryY=0;entryDx=0;entryDy=0;fontFamily=Helvetica;fontSize=12;fontColor=default;" edge="1" parent="1" source="eBYukhTFhuYysdgNIi8--38" target="eBYukhTFhuYysdgNIi8--4">
          <mxGeometry relative="1" as="geometry" />
        </mxCell>
        <mxCell id="eBYukhTFhuYysdgNIi8--43" style="edgeStyle=orthogonalEdgeStyle;rounded=0;orthogonalLoop=1;jettySize=auto;html=1;exitX=0.75;exitY=1;exitDx=0;exitDy=0;entryX=0.5;entryY=0;entryDx=0;entryDy=0;fontFamily=Helvetica;fontSize=12;fontColor=default;" edge="1" parent="1" source="eBYukhTFhuYysdgNIi8--38" target="eBYukhTFhuYysdgNIi8--2">
          <mxGeometry relative="1" as="geometry" />
        </mxCell>
        <mxCell id="eBYukhTFhuYysdgNIi8--44" style="edgeStyle=orthogonalEdgeStyle;rounded=0;orthogonalLoop=1;jettySize=auto;html=1;exitX=1;exitY=0.75;exitDx=0;exitDy=0;entryX=0;entryY=0.5;entryDx=0;entryDy=0;fontFamily=Helvetica;fontSize=12;fontColor=default;" edge="1" parent="1" source="eBYukhTFhuYysdgNIi8--38" target="eBYukhTFhuYysdgNIi8--8">
          <mxGeometry relative="1" as="geometry" />
        </mxCell>
        <mxCell id="eBYukhTFhuYysdgNIi8--45" style="edgeStyle=orthogonalEdgeStyle;rounded=0;orthogonalLoop=1;jettySize=auto;html=1;exitX=1;exitY=0.25;exitDx=0;exitDy=0;entryX=0;entryY=0.5;entryDx=0;entryDy=0;fontFamily=Helvetica;fontSize=12;fontColor=default;" edge="1" parent="1" source="eBYukhTFhuYysdgNIi8--38" target="eBYukhTFhuYysdgNIi8--27">
          <mxGeometry relative="1" as="geometry" />
        </mxCell>
        <mxCell id="eBYukhTFhuYysdgNIi8--46" style="edgeStyle=orthogonalEdgeStyle;rounded=0;orthogonalLoop=1;jettySize=auto;html=1;exitX=0.75;exitY=0;exitDx=0;exitDy=0;entryX=0.5;entryY=1;entryDx=0;entryDy=0;fontFamily=Helvetica;fontSize=12;fontColor=default;" edge="1" parent="1" source="eBYukhTFhuYysdgNIi8--38" target="eBYukhTFhuYysdgNIi8--5">
          <mxGeometry relative="1" as="geometry" />
        </mxCell>
        <mxCell id="eBYukhTFhuYysdgNIi8--59" style="edgeStyle=orthogonalEdgeStyle;rounded=0;orthogonalLoop=1;jettySize=auto;html=1;exitX=0.5;exitY=0;exitDx=0;exitDy=0;entryX=0.5;entryY=1;entryDx=0;entryDy=0;fontFamily=Helvetica;fontSize=12;fontColor=default;" edge="1" parent="1" source="eBYukhTFhuYysdgNIi8--38" target="eBYukhTFhuYysdgNIi8--57">
          <mxGeometry relative="1" as="geometry" />
        </mxCell>
        <mxCell id="eBYukhTFhuYysdgNIi8--60" style="edgeStyle=orthogonalEdgeStyle;rounded=0;orthogonalLoop=1;jettySize=auto;html=1;exitX=0.5;exitY=1;exitDx=0;exitDy=0;entryX=0.5;entryY=0;entryDx=0;entryDy=0;fontFamily=Helvetica;fontSize=12;fontColor=default;" edge="1" parent="1" source="eBYukhTFhuYysdgNIi8--38" target="eBYukhTFhuYysdgNIi8--58">
          <mxGeometry relative="1" as="geometry" />
        </mxCell>
        <mxCell id="eBYukhTFhuYysdgNIi8--38" value="SISTEMA DE GESTIÓN DE BMW" style="rounded=0;whiteSpace=wrap;html=1;strokeColor=default;align=center;verticalAlign=middle;fontFamily=Helvetica;fontSize=12;fontColor=default;fillColor=default;gradientColor=#808080;" vertex="1" parent="1">
          <mxGeometry x="800" y="290" width="200" height="60" as="geometry" />
        </mxCell>
        <mxCell id="eBYukhTFhuYysdgNIi8--57" value="Procesar&lt;div&gt;Consultas&lt;/div&gt;" style="ellipse;whiteSpace=wrap;html=1;rounded=0;strokeColor=default;align=center;verticalAlign=middle;fontFamily=Helvetica;fontSize=12;fontColor=default;fillColor=default;gradientColor=#808080;" vertex="1" parent="1">
          <mxGeometry x="840" y="10" width="120" height="80" as="geometry" />
        </mxCell>
        <mxCell id="eBYukhTFhuYysdgNIi8--58" value="Generar&lt;div&gt;Alertas&lt;/div&gt;" style="ellipse;whiteSpace=wrap;html=1;rounded=0;strokeColor=default;align=center;verticalAlign=middle;fontFamily=Helvetica;fontSize=12;fontColor=default;fillColor=default;gradientColor=#808080;" vertex="1" parent="1">
          <mxGeometry x="840" y="550" width="120" height="80" as="geometry" />
        </mxCell>
      </root>
    </mxGraphModel>
  </diagram>
</mxfile>
